<svg width="1269" height="498" viewBox="0 0 1269 498" fill="none" xmlns="http://www.w3.org/2000/svg">
<path d="M1168.11 371.82C1168.11 375.856 1167.31 379.852 1165.77 383.581C1164.22 387.309 1161.96 390.696 1159.1 393.549C1156.24 396.401 1152.85 398.663 1149.12 400.204C1145.39 401.746 1141.39 402.537 1137.36 402.533H130.933C122.776 402.542 114.949 399.311 109.175 393.551C103.4 387.791 100.15 379.975 100.139 371.82V126.891C100.15 118.732 103.399 110.911 109.172 105.145C114.946 99.3789 122.772 96.1392 130.933 96.1371H1137.35C1141.39 96.1371 1145.39 96.9326 1149.12 98.4782C1152.85 100.024 1156.24 102.289 1159.1 105.145C1161.95 108.001 1164.22 111.391 1165.76 115.122C1167.31 118.853 1168.1 122.852 1168.1 126.891L1168.11 371.82Z" fill="white"/>
<path d="M1137.35 409.678H130.933C120.884 409.676 111.247 405.689 104.135 398.591C97.0238 391.494 93.0191 381.866 93 371.82V126.899C93.0149 116.848 97.0169 107.213 104.128 100.108C111.239 93.0033 120.879 89.0085 130.933 89H1137.35C1147.4 89.0127 1157.04 93.0089 1164.15 100.113C1171.26 107.217 1175.26 116.849 1175.28 126.899V371.82C1175.3 392.702 1158.25 409.678 1137.35 409.678Z" fill="#A6A6A6"/>
<path d="M1168.11 371.82C1168.11 375.856 1167.31 379.852 1165.77 383.581C1164.22 387.309 1161.96 390.696 1159.1 393.549C1156.24 396.401 1152.85 398.663 1149.12 400.204C1145.39 401.746 1141.39 402.537 1137.36 402.533H130.933C122.776 402.542 114.949 399.311 109.175 393.551C103.4 387.791 100.15 379.975 100.139 371.82V126.891C100.15 118.732 103.399 110.911 109.172 105.145C114.946 99.3789 122.772 96.1392 130.933 96.1371H1137.35C1141.39 96.1371 1145.39 96.9326 1149.12 98.4782C1152.85 100.024 1156.24 102.289 1159.1 105.145C1161.95 108.001 1164.22 111.391 1165.76 115.122C1167.31 118.853 1168.1 122.852 1168.1 126.891L1168.11 371.82Z" fill="#111111"/>
<path d="M334.665 247.651C334.433 221.805 355.833 209.231 356.812 208.646C344.692 190.98 325.906 188.566 319.304 188.373C303.527 186.713 288.222 197.812 280.185 197.812C271.987 197.812 259.61 188.534 246.271 188.806C229.105 189.071 213.046 199.007 204.239 214.436C186.063 245.895 199.619 292.125 217.033 317.554C225.744 330.016 235.923 343.913 249.247 343.424C262.281 342.895 267.15 335.124 282.88 335.124C298.465 335.124 303.037 343.424 316.625 343.111C330.614 342.895 339.422 330.601 347.828 318.035C357.895 303.769 361.937 289.703 362.098 288.982C361.777 288.869 334.938 278.621 334.665 247.651ZM308.997 171.645C316.008 162.88 320.804 150.956 319.473 138.855C309.326 139.304 296.636 145.872 289.329 154.444C282.864 161.998 277.088 174.38 278.58 186.024C289.979 186.874 301.682 180.274 308.997 171.645Z" fill="white"/>
<path d="M1137.35 89H598.285L809.429 409.678H1137.35C1147.41 409.67 1157.04 405.677 1164.15 398.576C1171.26 391.474 1175.27 381.844 1175.29 371.796V126.899C1175.27 116.848 1171.27 107.215 1164.16 100.11C1157.05 93.0061 1147.41 89.0106 1137.35 89Z" fill="url(#paint0_linear_832_16)"/>
<path d="M523.462 341.636H505.246L495.267 310.289H460.583L451.078 341.636H433.343L467.714 234.917H488.938L523.462 341.636ZM492.259 297.137L483.235 269.271C482.281 266.424 480.484 259.72 477.853 249.167H477.532C476.473 253.705 474.781 260.409 472.463 269.271L463.591 297.137H492.259ZM611.68 302.213C611.68 315.301 608.126 325.645 601.012 333.239C594.643 340 586.726 343.376 577.285 343.376C567.09 343.376 559.758 339.743 555.306 332.462V372.838H538.205V289.976C538.205 281.756 537.988 273.328 537.571 264.684H552.611L553.566 276.881H553.887C559.59 267.691 568.245 263.096 579.859 263.096C588.94 263.096 596.52 266.68 602.584 273.858C608.64 281.051 611.68 290.497 611.68 302.213ZM594.258 302.839C594.258 295.349 592.573 289.174 589.188 284.307C585.49 279.246 580.525 276.712 574.301 276.712C570.082 276.712 566.247 278.124 562.822 280.906C559.389 283.713 557.143 287.378 556.092 291.917C555.623 293.614 555.357 295.361 555.298 297.121V309.96C555.298 315.549 557.015 320.272 560.448 324.138C563.881 327.987 568.341 329.92 573.827 329.92C580.269 329.92 585.282 327.426 588.867 322.478C592.461 317.514 594.258 310.97 594.258 302.839ZM700.211 302.213C700.211 315.301 696.657 325.645 689.543 333.239C683.166 340 675.257 343.376 665.808 343.376C655.612 343.376 648.281 339.743 643.829 332.462V372.838H626.728V289.976C626.728 281.756 626.511 273.328 626.094 264.684H641.134L642.089 276.881H642.409C648.105 267.691 656.76 263.096 668.382 263.096C677.454 263.096 685.035 266.68 691.115 273.858C697.163 281.051 700.211 290.497 700.211 302.213ZM682.781 302.839C682.781 295.349 681.088 289.174 677.703 284.307C674.005 279.246 669.056 276.712 662.832 276.712C658.612 276.712 654.778 278.124 651.337 280.906C647.904 283.713 645.666 287.378 644.615 291.917C644.094 294.034 643.813 295.758 643.813 297.121V309.96C643.813 315.549 645.538 320.272 648.955 324.138C652.388 327.979 656.848 329.92 662.35 329.92C668.799 329.92 673.813 327.426 677.39 322.478C680.984 317.514 682.781 310.97 682.781 302.839ZM799.193 311.7C799.193 320.786 796.017 328.171 789.704 333.873C782.758 340.096 773.06 343.215 760.627 343.215C749.141 343.215 739.932 341.002 732.986 336.567L736.94 322.317C744.44 326.76 752.678 328.973 761.646 328.973C768.095 328.973 773.108 327.514 776.686 324.619C780.271 321.716 782.084 317.835 782.084 312.991C782.084 308.653 780.584 305.02 777.64 302.061C774.68 299.11 769.787 296.359 762.913 293.833C744.224 286.865 734.871 276.672 734.871 263.264C734.871 254.507 738.175 247.338 744.769 241.733C751.362 236.135 760.106 233.337 770.983 233.337C780.696 233.337 788.79 235.029 795.215 238.405L790.923 252.342C784.875 249.07 778.049 247.434 770.413 247.434C764.381 247.434 759.649 248.918 756.264 251.869C753.416 254.507 751.972 257.723 751.972 261.54C751.972 265.75 753.616 269.247 756.889 271.989C759.729 274.515 764.91 277.266 772.402 280.217C781.595 283.922 788.349 288.236 792.672 293.192C797.028 298.148 799.193 304.33 799.193 311.7ZM855.88 277.514H837.03V314.876C837.03 324.378 840.351 329.118 847.008 329.118C850.064 329.118 852.599 328.861 854.604 328.324L855.078 341.307C851.709 342.566 847.273 343.199 841.778 343.199C835.024 343.199 829.746 341.138 825.936 337.016C822.142 332.895 820.233 325.99 820.233 316.271V277.482H809.003V264.652H820.233V250.562L837.03 245.494V264.652H855.88V277.514ZM940.761 302.526C940.761 314.354 937.376 324.066 930.622 331.66C923.555 339.478 914.154 343.376 902.435 343.376C891.125 343.376 882.133 339.631 875.428 332.149C868.722 324.651 865.369 315.204 865.369 303.809C865.369 291.885 868.834 282.117 875.74 274.523C882.663 266.921 891.984 263.12 903.703 263.12C914.997 263.12 924.069 266.873 930.935 274.363C937.496 281.628 940.761 291.011 940.761 302.526ZM923.034 302.919C923.034 295.87 921.51 289.824 918.454 284.764C914.868 278.653 909.735 275.598 903.085 275.598C896.235 275.598 890.981 278.653 887.403 284.764C884.339 289.824 882.815 295.974 882.815 303.24C882.815 310.297 884.339 316.359 887.403 321.403C891.101 327.514 896.259 330.569 902.941 330.569C909.478 330.569 914.604 327.45 918.309 321.251C921.454 316.07 923.034 309.984 923.034 302.919ZM996.373 279.72C994.594 279.399 992.79 279.24 990.982 279.246C984.966 279.246 980.314 281.508 977.041 286.063C974.202 290.072 972.774 295.14 972.774 301.259V341.636H955.673V288.918C955.688 280.84 955.522 272.762 955.175 264.692H970.071L970.696 279.415H971.17C972.983 274.355 975.822 270.273 979.72 267.218C983.289 264.548 987.624 263.102 992.081 263.096C993.661 263.096 995.089 263.208 996.357 263.409L996.373 279.72ZM1072.86 299.519C1072.9 302.118 1072.69 304.715 1072.23 307.273H1020.93C1021.12 314.876 1023.6 320.698 1028.37 324.707C1032.69 328.284 1038.28 330.08 1045.15 330.08C1052.75 330.08 1059.68 328.877 1065.91 326.447L1068.59 338.308C1061.3 341.483 1052.71 343.063 1042.78 343.063C1030.85 343.063 1021.48 339.551 1014.66 332.542C1007.86 325.525 1004.45 316.095 1004.45 304.282C1004.45 292.687 1007.62 283.024 1013.96 275.317C1020.6 267.089 1029.58 262.976 1040.87 262.976C1051.97 262.976 1060.37 267.089 1066.07 275.317C1070.59 281.837 1072.86 289.92 1072.86 299.519ZM1056.55 295.084C1056.67 290.008 1055.55 285.638 1053.23 281.941C1050.27 277.178 1045.71 274.804 1039.61 274.804C1034.02 274.804 1029.46 277.121 1026 281.773C1023.15 285.469 1021.46 289.912 1020.93 295.068L1056.55 295.084Z" fill="white"/>
<path d="M455.65 197.186C450.893 197.186 446.779 196.954 443.354 196.561V144.966C448.144 144.226 452.985 143.861 457.832 143.875C477.444 143.875 486.476 153.522 486.476 169.248C486.476 187.387 475.808 197.186 455.65 197.186ZM458.522 150.491C455.875 150.491 453.621 150.651 451.752 151.036V190.258C452.762 190.418 454.704 190.49 457.431 190.49C470.281 190.49 477.596 183.177 477.596 169.48C477.596 157.267 470.979 150.491 458.522 150.491ZM514.623 197.579C503.569 197.579 496.406 189.328 496.406 178.125C496.406 166.449 503.722 158.125 515.248 158.125C526.141 158.125 533.465 165.984 533.465 177.507C533.465 189.328 525.917 197.579 514.623 197.579ZM514.943 164.268C508.871 164.268 504.981 169.945 504.981 177.884C504.981 185.671 508.952 191.349 514.863 191.349C520.775 191.349 524.745 185.278 524.745 177.724C524.745 170.026 520.855 164.268 514.943 164.268ZM596.496 158.903L584.664 196.721H576.956L572.055 180.298C570.836 176.281 569.822 172.205 569.015 168.085H568.854C568.237 172.207 567.066 176.337 565.822 180.298L560.609 196.721H552.82L541.686 158.903H550.325L554.609 176.882C555.619 181.164 556.47 185.206 557.175 189.023H557.336C557.954 185.839 558.964 181.862 560.448 176.962L565.822 158.911H572.673L577.814 176.577C579.058 180.859 580.068 185.061 580.854 189.031H581.079C581.624 185.142 582.483 181.012 583.646 176.577L588.242 158.911L596.496 158.903ZM640.051 196.721H631.645V175.005C631.645 168.317 629.078 164.965 624.017 164.965C619.036 164.965 615.611 169.248 615.611 174.228V196.721H607.204V169.713C607.204 166.369 607.124 162.784 606.891 158.895H614.287L614.68 164.733H614.913C617.175 160.691 621.763 158.125 626.904 158.125C634.846 158.125 640.059 164.196 640.059 174.075L640.051 196.721ZM663.233 196.721H654.819V141.55H663.233V196.721ZM693.882 197.579C682.837 197.579 675.666 189.328 675.666 178.125C675.666 166.449 682.981 158.125 694.5 158.125C705.401 158.125 712.716 165.984 712.716 177.507C712.724 189.328 705.168 197.579 693.882 197.579ZM694.195 164.268C688.123 164.268 684.233 169.945 684.233 177.884C684.233 185.671 688.211 191.349 694.107 191.349C700.027 191.349 703.989 185.278 703.989 177.724C703.997 170.026 700.115 164.268 694.195 164.268ZM745.86 196.721L745.25 192.367H745.026C742.459 195.871 738.713 197.579 733.965 197.579C727.187 197.579 722.374 192.832 722.374 186.449C722.374 177.115 730.467 172.287 744.48 172.287V171.589C744.48 166.609 741.841 164.115 736.628 164.115C732.898 164.115 729.625 165.054 726.745 166.922L725.037 161.397C728.534 159.216 732.898 158.125 738.023 158.125C747.906 158.125 752.895 163.338 752.895 173.771V187.7C752.895 191.517 753.063 194.476 753.44 196.729L745.86 196.721ZM744.705 177.884C735.368 177.884 730.684 180.146 730.684 185.511C730.684 189.48 733.098 191.421 736.451 191.421C740.726 191.421 744.705 188.157 744.705 183.722V177.884ZM793.715 196.721L793.322 190.651H793.089C790.675 195.238 786.616 197.579 780.945 197.579C771.825 197.579 765.071 189.56 765.071 178.277C765.071 166.449 772.074 158.117 781.635 158.117C786.696 158.117 790.282 159.825 792.303 163.257H792.472V141.55H800.886V186.529C800.886 190.186 800.974 193.61 801.199 196.721H793.715ZM792.472 174.468C792.472 169.176 788.966 164.661 783.616 164.661C777.384 164.661 773.574 170.186 773.574 177.965C773.574 185.591 777.528 190.811 783.448 190.811C788.734 190.811 792.472 186.216 792.472 180.771V174.468ZM854.236 197.579C843.19 197.579 836.027 189.328 836.027 178.125C836.027 166.449 843.343 158.125 854.861 158.125C865.762 158.125 873.078 165.984 873.078 177.507C873.086 189.328 865.538 197.579 854.236 197.579ZM854.548 164.268C848.484 164.268 844.594 169.945 844.594 177.884C844.594 185.671 848.565 191.349 854.468 191.349C860.388 191.349 864.35 185.278 864.35 177.724C864.367 170.026 860.476 164.268 854.548 164.268ZM918.286 196.721H909.871V175.005C909.871 168.317 907.304 164.965 902.243 164.965C897.262 164.965 893.845 169.248 893.845 174.228V196.721H885.43V169.713C885.43 166.369 885.35 162.784 885.118 158.895H892.513L892.906 164.733H893.139C895.393 160.691 899.989 158.117 905.123 158.117C913.064 158.117 918.286 164.188 918.286 174.067V196.721ZM974.844 165.206H965.595V183.57C965.595 188.245 967.215 190.579 970.488 190.579C971.972 190.579 973.215 190.418 974.218 190.186L974.451 196.569C972.822 197.194 970.64 197.507 967.929 197.507C961.304 197.507 957.341 193.85 957.341 184.276V165.206H951.823V158.903H957.341V151.974L965.595 149.48V158.895H974.844V165.206ZM1019.35 196.721H1010.95V175.166C1010.95 168.398 1008.39 164.974 1003.32 164.974C998.964 164.974 994.905 167.933 994.905 173.923V196.721H986.507V141.55H994.905V164.268H995.073C997.72 160.146 1001.55 158.117 1006.45 158.117C1014.45 158.117 1019.35 164.34 1019.35 174.228V196.721ZM1064.94 179.833H1039.71C1039.87 186.994 1044.61 191.036 1051.63 191.036C1055.36 191.036 1058.79 190.41 1061.83 189.247L1063.13 195.085C1059.56 196.641 1055.35 197.419 1050.44 197.419C1038.61 197.419 1031.61 189.945 1031.61 178.357C1031.61 166.762 1038.78 158.045 1049.5 158.045C1059.16 158.045 1065.23 165.206 1065.23 176.024C1065.28 177.301 1065.18 178.579 1064.94 179.833ZM1057.23 173.843C1057.23 168.005 1054.29 163.883 1048.91 163.883C1044.08 163.883 1040.27 168.085 1039.72 173.843H1057.23Z" fill="white"/>
<defs>
<linearGradient id="paint0_linear_832_16" x1="886.777" y1="410.529" x2="886.777" y2="-745.99" gradientUnits="userSpaceOnUse">
<stop stop-color="#1A1A1A" stop-opacity="0.1"/>
<stop offset="0.123" stop-color="#212121" stop-opacity="0.151"/>
<stop offset="0.308" stop-color="#353535" stop-opacity="0.227"/>
<stop offset="0.532" stop-color="#575757" stop-opacity="0.318"/>
<stop offset="0.783" stop-color="#858585" stop-opacity="0.421"/>
<stop offset="1" stop-color="#B3B3B3" stop-opacity="0.51"/>
</linearGradient>
</defs>
</svg>
